<svg xmlns="http://www.w3.org/2000/svg" width="1100" height="1160" viewBox="0 0 1100 1160"><rect width="1100" height="1160" fill="white"/><defs><marker id="arrow" viewBox="0 0 10 10" refX="9" refY="5" markerWidth="8" markerHeight="8" orient="auto-start-reverse"><path d="M0 0L10 5L0 10Z" fill="#64748B"/></marker></defs><g font-family="PingFang SC, Microsoft YaHei, sans-serif" fill="#21364A"><polyline points="270,105 270,165" fill="none" stroke="#64748B" stroke-width="2.2" marker-end="url(#arrow)" stroke-dasharray="8 6"/><polyline points="830,105 830,165" fill="none" stroke="#64748B" stroke-width="2.2" marker-end="url(#arrow)" stroke-dasharray="8 6"/><polyline points="550,240 550,300" fill="none" stroke="#64748B" stroke-width="2.2" marker-end="url(#arrow)" stroke-dasharray="8 6"/><polyline points="190,400 190,475" fill="none" stroke="#64748B" stroke-width="2.2" marker-end="url(#arrow)"/><polyline points="550,400 550,475" fill="none" stroke="#64748B" stroke-width="2.2" marker-end="url(#arrow)"/><polyline points="910,400 910,475" fill="none" stroke="#64748B" stroke-width="2.2" marker-end="url(#arrow)"/><polyline points="190,625 190,730" fill="none" stroke="#64748B" stroke-width="2.2" marker-end="url(#arrow)"/><polyline points="350,580 375,580 375,685 550,685 550,730" fill="none" stroke="#64748B" stroke-width="2.2" marker-end="url(#arrow)"/><polyline points="910,625 910,730" fill="none" stroke="#64748B" stroke-width="2.2" marker-end="url(#arrow)" stroke-dasharray="8 6"/><polyline points="35,550 15,550 15,980 35,980" fill="none" stroke="#64748B" stroke-width="2.2" marker-end="url(#arrow)" stroke-dasharray="8 6"/><polyline points="1065,550 1085,550 1085,1097 1065,1097" fill="none" stroke="#64748B" stroke-width="2.2" marker-end="url(#arrow)"/><rect x="35" y="20" width="470" height="85" rx="8" fill="#F1F3F5" stroke="#6B7280" stroke-width="2"/><text x="270.0" y="62.5" text-anchor="middle" dominant-baseline="middle" font-size="22" font-weight="600">外部客户／合作方终端及业务服务器</text><rect x="595" y="20" width="470" height="85" rx="8" fill="#F1F3F5" stroke="#6B7280" stroke-width="2"/><text x="830.0" y="62.5" text-anchor="middle" dominant-baseline="middle" font-size="22" font-weight="600">内部运营／财务／管理员工作站</text><rect x="35" y="165" width="1030" height="75" rx="8" fill="#FFFAED" stroke="#A67C33" stroke-width="2" stroke-dasharray="8 5"/><text x="550.0" y="202.5" text-anchor="middle" dominant-baseline="middle" font-size="22" font-weight="600">N1 网络与安全接入设备  防火墙／WAF／负载均衡的实际部署及型号待核实</text><rect x="35" y="300" width="1030" height="100" rx="8" fill="#EAF3FC" stroke="#27609A" stroke-width="2"/><text x="550.0" y="334.0" text-anchor="middle" dominant-baseline="middle" font-size="22" font-weight="600">A1 接入应用服务器组</text><text x="550.0" y="366.0" text-anchor="middle" dominant-baseline="middle" font-size="22" font-weight="400">amp-gateway 对外接口网关  |  amp-admin 管理页面  |  amp-op-gateway 运营网关</text><rect x="35" y="475" width="315" height="150" rx="8" fill="#EAF3FC" stroke="#27609A" stroke-width="2"/><text x="192.5" y="502.0" text-anchor="middle" dominant-baseline="middle" font-size="22" font-weight="600">A2 通用业务应用服务器组</text><text x="192.5" y="534.0" text-anchor="middle" dominant-baseline="middle" font-size="22" font-weight="400">amp-order 订单／客户</text><text x="192.5" y="566.0" text-anchor="middle" dominant-baseline="middle" font-size="22" font-weight="400">amp-risk 及风控接口</text><text x="192.5" y="598.0" text-anchor="middle" dominant-baseline="middle" font-size="22" font-weight="400">认证与通用接口服务</text><rect x="395" y="475" width="315" height="150" rx="8" fill="#EAF3FC" stroke="#27609A" stroke-width="2"/><text x="552.5" y="502.0" text-anchor="middle" dominant-baseline="middle" font-size="22" font-weight="600">A3 资方应用服务器组</text><text x="552.5" y="534.0" text-anchor="middle" dominant-baseline="middle" font-size="22" font-weight="400">amp-capital</text><text x="552.5" y="566.0" text-anchor="middle" dominant-baseline="middle" font-size="22" font-weight="400">配置目标 172.17.0.121</text><text x="552.5" y="598.0" text-anchor="middle" dominant-baseline="middle" font-size="22" font-weight="400">配置目标 172.17.0.125</text><rect x="755" y="475" width="310" height="150" rx="8" fill="#EAF3FC" stroke="#27609A" stroke-width="2"/><text x="910.0" y="502.0" text-anchor="middle" dominant-baseline="middle" font-size="22" font-weight="600">A4 支付账务应用服务器</text><text x="910.0" y="534.0" text-anchor="middle" dominant-baseline="middle" font-size="22" font-weight="400">amp-payment／amp-saps</text><text x="910.0" y="566.0" text-anchor="middle" dominant-baseline="middle" font-size="22" font-weight="400">配置目标 amp-ssh-prod</text><text x="910.0" y="598.0" text-anchor="middle" dominant-baseline="middle" font-size="22" font-weight="400">物理地址待补齐</text><rect x="35" y="730" width="315" height="125" rx="8" fill="#FFF3E6" stroke="#BD7627" stroke-width="2"/><text x="192.5" y="744.5" text-anchor="middle" dominant-baseline="middle" font-size="22" font-weight="600">D1 生产数据库设备</text><text x="192.5" y="776.5" text-anchor="middle" dominant-baseline="middle" font-size="22" font-weight="400">资源标识 amp-db-prod</text><text x="192.5" y="808.5" text-anchor="middle" dominant-baseline="middle" font-size="22" font-weight="400">MySQL 业务分库</text><text x="192.5" y="840.5" text-anchor="middle" dominant-baseline="middle" font-size="22" font-weight="400">物理主机／实例待补齐</text><rect x="395" y="730" width="315" height="125" rx="8" fill="#FFF3E6" stroke="#BD7627" stroke-width="2"/><text x="552.5" y="744.5" text-anchor="middle" dominant-baseline="middle" font-size="22" font-weight="600">D2 文件存储设备</text><text x="552.5" y="776.5" text-anchor="middle" dominant-baseline="middle" font-size="22" font-weight="400">OSS 对象存储</text><text x="552.5" y="808.5" text-anchor="middle" dominant-baseline="middle" font-size="22" font-weight="400">合同、影像和业务附件</text><text x="552.5" y="840.5" text-anchor="middle" dominant-baseline="middle" font-size="22" font-weight="400">存储实例待核实</text><rect x="755" y="730" width="310" height="125" rx="8" fill="#FFFAED" stroke="#A67C33" stroke-width="2" stroke-dasharray="8 5"/><text x="910.0" y="744.5" text-anchor="middle" dominant-baseline="middle" font-size="22" font-weight="600">D3 日志存储设备</text><text x="910.0" y="776.5" text-anchor="middle" dominant-baseline="middle" font-size="22" font-weight="400">应用日志文件</text><text x="910.0" y="808.5" text-anchor="middle" dominant-baseline="middle" font-size="22" font-weight="400">集中采集／存储待核实</text><text x="910.0" y="840.5" text-anchor="middle" dominant-baseline="middle" font-size="22" font-weight="400">D4 备份设备另行补齐</text><rect x="35" y="940" width="1030" height="80" rx="8" fill="#F2EDFC" stroke="#7851A9" stroke-width="2"/><text x="550.0" y="964.0" text-anchor="middle" dominant-baseline="middle" font-size="22" font-weight="600">M1 中间件承载设备  实例及部署地址待核实</text><text x="550.0" y="996.0" text-anchor="middle" dominant-baseline="middle" font-size="22" font-weight="400">Nacos 配置与注册  |  Redis 缓存和锁  |  AMQP 消息组件（代码存在依赖）</text><rect x="35" y="1060" width="1030" height="75" rx="8" fill="#F1F3F5" stroke="#6B7280" stroke-width="2"/><text x="550.0" y="1097.5" text-anchor="middle" dominant-baseline="middle" font-size="22" font-weight="600">外部／共享服务  银行与支付渠道  |  电子签章  |  再保理资方系统（含嘉泰侧）</text><rect x="652.0" y="255" width="176.0" height="31" rx="3" fill="white"/><text x="740" y="270" text-anchor="middle" dominant-baseline="middle" font-size="20">入口报文与页面请求</text><rect x="134.0" y="670" width="122.0" height="31" rx="3" fill="white"/><text x="195" y="685" text-anchor="middle" dominant-baseline="middle" font-size="20">业务数据读写</text><rect x="489.0" y="670" width="122.0" height="31" rx="3" fill="white"/><text x="550" y="685" text-anchor="middle" dominant-baseline="middle" font-size="20">通用文件服务</text><rect x="887.0" y="670" width="86.0" height="31" rx="3" fill="white"/><text x="930" y="685" text-anchor="middle" dominant-baseline="middle" font-size="20">运行日志</text><text x="35" y="890" font-size="20" fill="#64748B">D1 为共享展示的数据库设备：A2／A3／A4 各模块按职责读写对应业务库，不表示只由 A2 访问。</text><text x="35" y="1155" font-size="20" fill="#64748B">蓝色为应用模块；橙色为存储；虚线表示待核实的设备环节或部署关系。服务器组不等于独立物理服务器。</text></g></svg>