<?xml version='1.0' encoding='UTF-8'?>
<svg xmlns="http://www.w3.org/2000/svg" width="1100" height="1030" viewBox="0 0 1100 1030"><rect width="1100" height="1030" fill="white"/><defs><marker id="arrow" viewBox="0 0 10 10" refX="9" refY="5" markerWidth="8" markerHeight="8" orient="auto-start-reverse"><path d="M0 0L10 5L0 10Z" fill="#64748B"/></marker></defs><g font-family="PingFang SC, Microsoft YaHei, sans-serif" fill="#21364A"><polyline points="185,120 185,165 470,165 470,220" fill="none" stroke="#64748B" stroke-width="2.2" marker-end="url(#arrow)"/><polyline points="565,120 565,220" fill="none" stroke="#64748B" stroke-width="2.2" marker-end="url(#arrow)"/><polyline points="930,120 930,170 660,170 660,220" fill="none" stroke="#64748B" stroke-width="2.2" marker-end="url(#arrow)"/><polyline points="565,340 565,420" fill="none" stroke="#64748B" stroke-width="2.2" marker-end="url(#arrow)"/><polyline points="410,475 340,475" fill="none" stroke="#64748B" stroke-width="2.2" marker-end="url(#arrow)"/><polyline points="720,458 790,458" fill="none" stroke="#64748B" stroke-width="2.2" marker-end="url(#arrow)"/><polyline points="790,505 720,505" fill="none" stroke="#64748B" stroke-width="2.2" marker-end="url(#arrow)"/><polyline points="565,535 565,615" fill="none" stroke="#64748B" stroke-width="2.2" marker-end="url(#arrow)"/><polyline points="720,675 790,675" fill="none" stroke="#64748B" stroke-width="2.2" marker-end="url(#arrow)"/><polyline points="565,730 565,810" fill="none" stroke="#64748B" stroke-width="2.2" marker-end="url(#arrow)"/><polyline points="410,870 340,870" fill="none" stroke="#64748B" stroke-width="2.2" marker-end="url(#arrow)"/><polyline points="720,870 790,870" fill="none" stroke="#64748B" stroke-width="2.2" marker-end="url(#arrow)"/><rect x="30" y="20" width="310" height="100" rx="8" fill="#F1F3F5" stroke="#6B7280" stroke-width="2"/><text x="185.0" y="54.0" text-anchor="middle" dominant-baseline="middle" font-size="22" font-weight="600">客户／合作方终端</text><text x="185.0" y="86.0" text-anchor="middle" dominant-baseline="middle" font-size="22" font-weight="400">还款申请及账单查询</text><rect x="410" y="20" width="310" height="100" rx="8" fill="#F1F3F5" stroke="#6B7280" stroke-width="2"/><text x="565.0" y="54.0" text-anchor="middle" dominant-baseline="middle" font-size="22" font-weight="600">财务人员终端</text><text x="565.0" y="86.0" text-anchor="middle" dominant-baseline="middle" font-size="22" font-weight="400">结算／对账／重新付款</text><rect x="790" y="20" width="280" height="100" rx="8" fill="#F2EDFC" stroke="#7851A9" stroke-width="2"/><text x="930.0" y="54.0" text-anchor="middle" dominant-baseline="middle" font-size="22" font-weight="600">应用调度程序</text><text x="930.0" y="86.0" text-anchor="middle" dominant-baseline="middle" font-size="22" font-weight="400">按项目配置发起任务</text><rect x="410" y="220" width="310" height="120" rx="8" fill="#EAF3FC" stroke="#27609A" stroke-width="2"/><text x="565.0" y="248.0" text-anchor="middle" dominant-baseline="middle" font-size="22" font-weight="600">账务服务器</text><text x="565.0" y="280.0" text-anchor="middle" dominant-baseline="middle" font-size="22" font-weight="400">amp-saps</text><text x="565.0" y="312.0" text-anchor="middle" dominant-baseline="middle" font-size="22" font-weight="400">账单校验与交易登记</text><rect x="410" y="420" width="310" height="115" rx="8" fill="#EAF3FC" stroke="#27609A" stroke-width="2"/><text x="565.0" y="445.5" text-anchor="middle" dominant-baseline="middle" font-size="22" font-weight="600">支付服务器</text><text x="565.0" y="477.5" text-anchor="middle" dominant-baseline="middle" font-size="22" font-weight="400">amp-payment</text><text x="565.0" y="509.5" text-anchor="middle" dominant-baseline="middle" font-size="22" font-weight="400">创建支付／代付订单</text><rect x="30" y="420" width="310" height="115" rx="8" fill="#FFF3E6" stroke="#BD7627" stroke-width="2"/><text x="185.0" y="445.5" text-anchor="middle" dominant-baseline="middle" font-size="22" font-weight="600">生产数据库</text><text x="185.0" y="477.5" text-anchor="middle" dominant-baseline="middle" font-size="22" font-weight="400">amp_payment</text><text x="185.0" y="509.5" text-anchor="middle" dominant-baseline="middle" font-size="22" font-weight="400">业务订单和渠道流水</text><rect x="790" y="420" width="280" height="115" rx="8" fill="#F1F3F5" stroke="#6B7280" stroke-width="2"/><text x="930.0" y="445.5" text-anchor="middle" dominant-baseline="middle" font-size="22" font-weight="600">外部支付渠道服务器</text><text x="930.0" y="477.5" text-anchor="middle" dominant-baseline="middle" font-size="22" font-weight="400">银行／支付机构</text><text x="930.0" y="509.5" text-anchor="middle" dominant-baseline="middle" font-size="22" font-weight="400">受理并处理交易</text><rect x="410" y="615" width="310" height="115" rx="8" fill="#EAF3FC" stroke="#27609A" stroke-width="2"/><text x="565.0" y="640.5" text-anchor="middle" dominant-baseline="middle" font-size="22" font-weight="600">支付服务器</text><text x="565.0" y="672.5" text-anchor="middle" dominant-baseline="middle" font-size="22" font-weight="400">接收回调或查询结果</text><text x="565.0" y="704.5" text-anchor="middle" dominant-baseline="middle" font-size="22" font-weight="400">更新渠道和业务状态</text><rect x="790" y="615" width="280" height="115" rx="8" fill="#F1F3F5" stroke="#6B7280" stroke-width="2"/><text x="930.0" y="640.5" text-anchor="middle" dominant-baseline="middle" font-size="22" font-weight="600">失败／处理中</text><text x="930.0" y="672.5" text-anchor="middle" dominant-baseline="middle" font-size="22" font-weight="400">保留状态并查询或处理</text><text x="930.0" y="704.5" text-anchor="middle" dominant-baseline="middle" font-size="22" font-weight="400">不得记为成功核销</text><rect x="410" y="810" width="310" height="115" rx="8" fill="#EAF3FC" stroke="#27609A" stroke-width="2"/><text x="565.0" y="835.5" text-anchor="middle" dominant-baseline="middle" font-size="22" font-weight="600">账务服务器</text><text x="565.0" y="867.5" text-anchor="middle" dominant-baseline="middle" font-size="22" font-weight="400">amp-saps</text><text x="565.0" y="899.5" text-anchor="middle" dominant-baseline="middle" font-size="22" font-weight="400">按成功结果核销账单</text><rect x="30" y="810" width="310" height="115" rx="8" fill="#FFF3E6" stroke="#BD7627" stroke-width="2"/><text x="185.0" y="835.5" text-anchor="middle" dominant-baseline="middle" font-size="22" font-weight="600">生产数据库</text><text x="185.0" y="867.5" text-anchor="middle" dominant-baseline="middle" font-size="22" font-weight="400">amp_saps</text><text x="185.0" y="899.5" text-anchor="middle" dominant-baseline="middle" font-size="22" font-weight="400">账单／交易／对账单</text><rect x="790" y="810" width="280" height="115" rx="8" fill="#F1F3F5" stroke="#6B7280" stroke-width="2"/><text x="930.0" y="835.5" text-anchor="middle" dominant-baseline="middle" font-size="22" font-weight="600">合作方／资方系统</text><text x="930.0" y="867.5" text-anchor="middle" dominant-baseline="middle" font-size="22" font-weight="400">接收账务及结算状态</text><text x="930.0" y="899.5" text-anchor="middle" dominant-baseline="middle" font-size="22" font-weight="400">相关项目含再保理侧</text><rect x="263.0" y="150" width="104.0" height="31" rx="3" fill="white"/><text x="315" y="165" text-anchor="middle" dominant-baseline="middle" font-size="20">经接入网关</text><rect x="486.0" y="155" width="158.0" height="31" rx="3" fill="white"/><text x="565" y="170" text-anchor="middle" dominant-baseline="middle" font-size="20">经后台与运营网关</text><rect x="792.0" y="155" width="86.0" height="31" rx="3" fill="white"/><text x="835" y="170" text-anchor="middle" dominant-baseline="middle" font-size="20">到期任务</text><rect x="614.0" y="365" width="212.0" height="31" rx="3" fill="white"/><text x="720" y="380" text-anchor="middle" dominant-baseline="middle" font-size="20">账单号／金额／支付要素</text><rect x="350.0" y="438" width="50.0" height="31" rx="3" fill="white"/><text x="375" y="453" text-anchor="middle" dominant-baseline="middle" font-size="20">读写</text><rect x="730.0" y="425" width="50.0" height="31" rx="3" fill="white"/><text x="755" y="440" text-anchor="middle" dominant-baseline="middle" font-size="20">请求</text><rect x="730.0" y="512" width="50.0" height="31" rx="3" fill="white"/><text x="755" y="527" text-anchor="middle" dominant-baseline="middle" font-size="20">结果</text><rect x="643.0" y="562" width="194.0" height="31" rx="3" fill="white"/><text x="740" y="577" text-anchor="middle" dominant-baseline="middle" font-size="20">处理中的交易持续查询</text><rect x="609.0" y="755" width="122.0" height="31" rx="3" fill="white"/><text x="670" y="770" text-anchor="middle" dominant-baseline="middle" font-size="20">成功结果通知</text><rect x="350.0" y="833" width="50.0" height="31" rx="3" fill="white"/><text x="375" y="848" text-anchor="middle" dominant-baseline="middle" font-size="20">读写</text><text x="35" y="980" font-size="20" fill="#64748B">查询结果经运营网关返回，交易结果支持异步通知。</text><text x="35" y="1010" font-size="20" fill="#64748B">资金划拨由银行或支付机构执行。</text></g></svg>